<svg width="39" height="38" viewBox="0 0 39 38" fill="none" xmlns="http://www.w3.org/2000/svg">
<path d="M13.3335 3.16663V9.49996" stroke="#4AEDD9" stroke-width="2" stroke-linecap="round" stroke-linejoin="round"/>
<path d="M26 3.16663V9.49996" stroke="#4AEDD9" stroke-width="2" stroke-linecap="round" stroke-linejoin="round"/>
<path d="M33.9165 26.9167V9.50004C33.9165 8.66019 33.5829 7.85473 32.989 7.26087C32.3951 6.667 31.5897 6.33337 30.7498 6.33337H8.58317C7.74332 6.33337 6.93786 6.667 6.344 7.26087C5.75013 7.85473 5.4165 8.66019 5.4165 9.50004V31.6667C5.4165 32.5066 5.75013 33.312 6.344 33.9059C6.93786 34.4997 7.74332 34.8334 8.58317 34.8334H25.9998L33.9165 26.9167Z" stroke="#4AEDD9" stroke-width="2" stroke-linecap="round" stroke-linejoin="round"/>
<path d="M5.4165 15.8334H33.9165" stroke="#4AEDD9" stroke-width="2" stroke-linecap="round" stroke-linejoin="round"/>
<path d="M24.4165 34.8334V28.5C24.4165 27.6602 24.7501 26.8547 25.344 26.2609C25.9379 25.667 26.7433 25.3334 27.5832 25.3334H33.9165" stroke="#4AEDD9" stroke-width="2" stroke-linecap="round" stroke-linejoin="round"/>
<rect x="10.1665" y="20.5834" width="19" height="1.58333" rx="0.791667" fill="#4AEDD9"/>
<rect x="10.1665" y="25.3334" width="11.0833" height="1.58333" rx="0.791667" fill="#4AEDD9"/>
<rect x="10.1665" y="30.0834" width="11.0833" height="1.58333" rx="0.791667" fill="#4AEDD9"/>
</svg>
