<svg width="39" height="38" viewBox="0 0 39 38" fill="none" xmlns="http://www.w3.org/2000/svg">
<path d="M19.1668 15.8334H6.50016C4.75126 15.8334 3.3335 17.2511 3.3335 19V31.6667C3.3335 33.4156 4.75126 34.8334 6.50016 34.8334H19.1668C20.9157 34.8334 22.3335 33.4156 22.3335 31.6667V19C22.3335 17.2511 20.9157 15.8334 19.1668 15.8334Z" stroke="#4AEDD9" stroke-width="2" stroke-linecap="round" stroke-linejoin="round"/>
<path d="M28.54 22.1669L34.0817 16.6252C34.6691 15.9737 34.9943 15.1275 34.9943 14.2502C34.9943 13.3729 34.6691 12.5268 34.0817 11.8752L26.165 4.08522C25.5135 3.49775 24.6673 3.17261 23.79 3.17261C22.9127 3.17261 22.0665 3.49775 21.415 4.08522L16 9.50022" stroke="#4AEDD9" stroke-width="2" stroke-linecap="round" stroke-linejoin="round"/>
<path d="M8.0835 30.0834H8.0985" stroke="#4AEDD9" stroke-width="3.16667" stroke-linecap="round" stroke-linejoin="round"/>
<path d="M17.5835 30.0834H17.5985" stroke="#4AEDD9" stroke-width="3.16667" stroke-linecap="round" stroke-linejoin="round"/>
<path d="M12.8335 25.3334H12.8485" stroke="#4AEDD9" stroke-width="3.16667" stroke-linecap="round" stroke-linejoin="round"/>
<path d="M8.0835 20.5834H8.0985" stroke="#4AEDD9" stroke-width="3.16667" stroke-linecap="round" stroke-linejoin="round"/>
<path d="M17.5835 20.5834H17.5985" stroke="#4AEDD9" stroke-width="3.16667" stroke-linecap="round" stroke-linejoin="round"/>
<path d="M23.9165 7.91663H23.9315" stroke="#4AEDD9" stroke-width="3.16667" stroke-linecap="round" stroke-linejoin="round"/>
<path d="M23.9165 14.25H23.9315" stroke="#4AEDD9" stroke-width="3.16667" stroke-linecap="round" stroke-linejoin="round"/>
<path d="M30.25 14.25H30.265" stroke="#4AEDD9" stroke-width="3.16667" stroke-linecap="round" stroke-linejoin="round"/>
</svg>
