<svg width="38" height="38" viewBox="0 0 38 38" fill="none" xmlns="http://www.w3.org/2000/svg">
<path d="M23.75 34.25V24.3981C23.75 24.0715 23.5832 23.7583 23.2863 23.5273C22.9893 23.2964 22.5866 23.1666 22.1667 23.1666H15.8333C15.4134 23.1666 15.0107 23.2964 14.7137 23.5273C14.4168 23.7583 14.25 24.0715 14.25 24.3981V34.25" stroke="#4AEDD9" stroke-width="2" stroke-linecap="round" stroke-linejoin="round"/>
<path d="M4.00049 16.5C4.00037 16.0151 4.10604 15.536 4.31014 15.0962C4.51423 14.6563 4.81182 14.2663 5.18216 13.9533L16.8489 3.95495C17.4505 3.44646 18.2128 3.16748 19.0005 3.16748C19.7883 3.16748 20.5506 3.44646 21.1522 3.95495L32.8189 13.9533C33.1892 14.2663 33.4868 14.6563 33.6909 15.0962C33.895 15.536 34.0007 16.0151 34.0006 16.5V31.5C34.0006 32.3841 33.6494 33.2319 33.0243 33.8571C32.3991 34.4822 31.5513 34.8334 30.6672 34.8334H7.33383C6.44977 34.8334 5.60193 34.4822 4.9768 33.8571C4.35168 33.2319 4.00049 32.3841 4.00049 31.5V16.5Z" stroke="#4AEDD9" stroke-width="2" stroke-linecap="round" stroke-linejoin="round"/>
<rect x="27" y="5" width="3" height="6" rx="1.5" fill="#4AEDD9"/>
<circle cx="19" cy="12.6666" r="3.95833" stroke="#4AEDD9" stroke-width="1.58333"/>
<line x1="19.0002" y1="7.91663" x2="19.0002" y2="17.4166" stroke="#4AEDD9" stroke-width="1.58333"/>
<line x1="14.25" y1="12.6667" x2="23.75" y2="12.6667" stroke="#4AEDD9" stroke-width="1.58333"/>
</svg>
