<svg width="38" height="38" viewBox="0 0 38 38" fill="none" xmlns="http://www.w3.org/2000/svg">
<path d="M32 21.1477C32 29.3963 26.3125 33.5206 19.5525 35.9127C19.1985 36.0345 18.814 36.0287 18.4638 35.8962C11.6875 33.5206 6 29.3963 6 21.1477V9.59964C6 9.1621 6.17121 8.74249 6.47595 8.43311C6.7807 8.12372 7.19402 7.94991 7.625 7.94991C10.875 7.94991 14.9375 5.97024 17.765 3.46266C18.1093 3.16406 18.5472 3 19 3C19.4528 3 19.8907 3.16406 20.235 3.46266C23.0788 5.98674 27.125 7.94991 30.375 7.94991C30.806 7.94991 31.2193 8.12372 31.524 8.43311C31.8288 8.74249 32 9.1621 32 9.59964V21.1477Z" stroke="#4AEDD9" stroke-width="2" stroke-linecap="round" stroke-linejoin="round"/>
<path d="M11 31.3285C11.6006 29.4703 12.6812 27.868 14.0966 26.7368C15.512 25.6055 17.1945 24.9995 18.9181 25C20.6418 25.0005 22.324 25.6076 23.7389 26.7397C25.1538 27.8719 26.2336 29.4748 26.8333 31.3333" stroke="#4AEDD9" stroke-width="2" stroke-linecap="round" stroke-linejoin="round"/>
<path d="M19.0003 23.7499C22.4981 23.7499 25.3337 20.9144 25.3337 17.4166C25.3337 13.9188 22.4981 11.0833 19.0003 11.0833C15.5025 11.0833 12.667 13.9188 12.667 17.4166C12.667 20.9144 15.5025 23.7499 19.0003 23.7499Z" stroke="#4AEDD9" stroke-width="2" stroke-linecap="round" stroke-linejoin="round"/>
</svg>
