<svg width="39" height="38" viewBox="0 0 39 38" fill="none" xmlns="http://www.w3.org/2000/svg">
<path d="M4.0835 11.0833L11.066 4.10079C11.3606 3.80444 11.7109 3.56933 12.0968 3.409C12.4827 3.24867 12.8965 3.1663 13.3143 3.16663H26.5193C26.9372 3.1663 27.351 3.24867 27.7369 3.409C28.1227 3.56933 28.4731 3.80444 28.7677 4.10079L35.7502 11.0833" stroke="#4AEDD9" stroke-width="2" stroke-linecap="round" stroke-linejoin="round"/>
<path d="M7.25 19V31.6667C7.25 32.5065 7.58363 33.312 8.1775 33.9058C8.77136 34.4997 9.57681 34.8333 10.4167 34.8333H29.4167C30.2565 34.8333 31.062 34.4997 31.6558 33.9058C32.2497 33.312 32.5833 32.5065 32.5833 31.6667V19" stroke="#4AEDD9" stroke-width="2" stroke-linecap="round" stroke-linejoin="round"/>
<path d="M26.2498 34.8334V28.5C26.2498 27.6602 26.0274 26.8547 25.6315 26.2609C25.2356 25.667 24.6986 25.3334 24.1387 25.3334H22.0276C21.4677 25.3334 20.9307 25.667 20.5348 26.2609C20.1389 26.8547 19.9165 27.6602 19.9165 28.5V34.8334" stroke="#4AEDD9" stroke-width="2" stroke-linecap="round" stroke-linejoin="round"/>
<path d="M4.0835 11.0834H35.7502" stroke="#4AEDD9" stroke-width="2" stroke-linecap="round" stroke-linejoin="round"/>
<path d="M35.7502 11.0834V15.8334C35.7502 16.6732 35.4165 17.4787 34.8227 18.0725C34.2288 18.6664 33.4233 19 32.5835 19C31.6584 18.9491 30.7749 18.5991 30.066 18.0025C29.8771 17.866 29.6499 17.7925 29.4168 17.7925C29.1837 17.7925 28.9566 17.866 28.7677 18.0025C28.0588 18.5991 27.1752 18.9491 26.2502 19C25.3251 18.9491 24.4416 18.5991 23.7327 18.0025C23.5437 17.866 23.3166 17.7925 23.0835 17.7925C22.8504 17.7925 22.6233 17.866 22.4343 18.0025C21.7254 18.5991 20.8419 18.9491 19.9168 19C18.9917 18.9491 18.1082 18.5991 17.3993 18.0025C17.2104 17.866 16.9833 17.7925 16.7502 17.7925C16.5171 17.7925 16.2899 17.866 16.101 18.0025C15.3921 18.5991 14.5086 18.9491 13.5835 19C12.6584 18.9491 11.7749 18.5991 11.066 18.0025C10.8771 17.866 10.6499 17.7925 10.4168 17.7925C10.1837 17.7925 9.95659 17.866 9.76766 18.0025C9.05876 18.5991 8.17525 18.9491 7.25016 19C6.41031 19 5.60486 18.6664 5.01099 18.0725C4.41713 17.4787 4.0835 16.6732 4.0835 15.8334V11.0834" stroke="#4AEDD9" stroke-width="2" stroke-linecap="round" stroke-linejoin="round"/>
<rect x="10.4165" y="23.75" width="1.58333" height="6.33333" rx="0.791667" transform="rotate(-90 10.4165 23.75)" fill="#4AEDD9"/>
<rect x="10.4165" y="28.5" width="1.58333" height="6.33333" rx="0.791667" transform="rotate(-90 10.4165 28.5)" fill="#4AEDD9"/>
<rect x="7.25" y="31.6666" width="1.58333" height="12.6667" rx="0.791667" transform="rotate(-90 7.25 31.6666)" fill="#4AEDD9"/>
<rect x="26" y="32" width="2" height="7" rx="1" transform="rotate(-90 26 32)" fill="#4AEDD9"/>
<rect x="10.4165" y="22.1666" width="1.58333" height="6.33333" rx="0.791667" fill="#4AEDD9"/>
<rect x="15.1665" y="22.1666" width="1.58333" height="6.33333" rx="0.791667" fill="#4AEDD9"/>
</svg>
