<svg width="38" height="38" viewBox="0 0 38 38" fill="none" xmlns="http://www.w3.org/2000/svg">
<circle cx="19" cy="19" r="16" stroke="#FBFF00" stroke-width="2"/>
<path d="M13.4803 31H12.2915V27.6465H13.4901C13.8274 27.6465 14.1178 27.7136 14.3612 27.8479C14.6047 27.9811 14.7919 28.1726 14.9229 28.4226C15.055 28.6726 15.121 28.9717 15.121 29.32C15.121 29.6693 15.055 29.9695 14.9229 30.2206C14.7919 30.4716 14.6036 30.6643 14.358 30.7986C14.1134 30.9329 13.8209 31 13.4803 31ZM13.0005 30.3925H13.4508C13.6604 30.3925 13.8367 30.3554 13.9797 30.2812C14.1238 30.2058 14.2319 30.0896 14.3039 29.9324C14.3771 29.7741 14.4136 29.5699 14.4136 29.32C14.4136 29.0722 14.3771 28.8697 14.3039 28.7125C14.2319 28.5553 14.1243 28.4395 13.9813 28.3653C13.8383 28.2911 13.662 28.254 13.4524 28.254H13.0005V30.3925Z" fill="#FBFF00"/>
<path d="M17.9917 32.4V29.0465H20.2121V29.6311H18.7007V30.4301H20.0647V31.0147H18.7007V32.4H17.9917Z" fill="#FBFF00"/>
<path d="M26.2504 28.8205H25.5332C25.5201 28.7277 25.4933 28.6453 25.4529 28.5733C25.4125 28.5001 25.3607 28.4379 25.2974 28.3866C25.2341 28.3353 25.1609 28.296 25.0779 28.2687C24.9961 28.2414 24.9071 28.2278 24.811 28.2278C24.6375 28.2278 24.4863 28.2709 24.3575 28.3571C24.2286 28.4423 24.1288 28.5667 24.0578 28.7305C23.9868 28.8931 23.9514 29.0907 23.9514 29.3232C23.9514 29.5623 23.9868 29.7632 24.0578 29.9258C24.1299 30.0885 24.2303 30.2113 24.3591 30.2943C24.4879 30.3772 24.6369 30.4187 24.8061 30.4187C24.9011 30.4187 24.989 30.4061 25.0698 30.381C25.1516 30.3559 25.2242 30.3194 25.2875 30.2713C25.3509 30.2222 25.4033 30.1627 25.4447 30.0928C25.4873 30.023 25.5168 29.9433 25.5332 29.8538L26.2504 29.857C26.2318 30.011 26.1854 30.1594 26.1112 30.3024C26.038 30.4444 25.9393 30.5715 25.8148 30.684C25.6915 30.7953 25.5441 30.8837 25.3727 30.9492C25.2024 31.0136 25.0097 31.0458 24.7947 31.0458C24.4956 31.0458 24.2281 30.9782 23.9923 30.8428C23.7576 30.7074 23.572 30.5115 23.4356 30.255C23.3002 29.9984 23.2325 29.6878 23.2325 29.3232C23.2325 28.9575 23.3013 28.6464 23.4388 28.3899C23.5764 28.1333 23.7631 27.9379 23.9989 27.8037C24.2347 27.6683 24.4999 27.6006 24.7947 27.6006C24.989 27.6006 25.1691 27.6279 25.335 27.6825C25.5021 27.7371 25.65 27.8168 25.7788 27.9216C25.9076 28.0253 26.0124 28.1524 26.0932 28.3031C26.1751 28.4537 26.2275 28.6262 26.2504 28.8205Z" fill="#FBFF00"/>
<path d="M7.92299 21V10.3805H14.9543V12.2316H10.1682V14.7621H14.4876V16.6132H10.1682V21H7.92299ZM18.8549 21L15.8163 10.3805H18.269L20.0268 17.7592H20.115L22.0543 10.3805H24.1543L26.0884 17.7747H26.1818L27.9396 10.3805H30.3923L27.3537 21H25.1655L23.1432 14.0569H23.0602L21.0431 21H18.8549Z" fill="#FBFF00"/>
<rect x="14" y="25" width="1" height="10" transform="rotate(-90 14 25)" fill="#FBFF00"/>
</svg>
