<svg width="38" height="38" viewBox="0 0 38 38" fill="none" xmlns="http://www.w3.org/2000/svg">
<path d="M12.667 3.16675V9.50008" stroke="#E6E6E6" stroke-width="2" stroke-linecap="round" stroke-linejoin="round"/>
<path d="M25.333 3.16675V9.50008" stroke="#E6E6E6" stroke-width="2" stroke-linecap="round" stroke-linejoin="round"/>
<path d="M33.25 26.9166V9.49992C33.25 8.66007 32.9164 7.85461 32.3225 7.26075C31.7286 6.66688 30.9232 6.33325 30.0833 6.33325H7.91667C7.07681 6.33325 6.27136 6.66688 5.6775 7.26075C5.08363 7.85461 4.75 8.66007 4.75 9.49992V31.6666C4.75 32.5064 5.08363 33.3119 5.6775 33.9058C6.27136 34.4996 7.07681 34.8333 7.91667 34.8333H25.3333L33.25 26.9166Z" stroke="#E6E6E6" stroke-width="2" stroke-linecap="round" stroke-linejoin="round"/>
<path d="M4.75 15.8333H33.25" stroke="#E6E6E6" stroke-width="2" stroke-linecap="round" stroke-linejoin="round"/>
<path d="M33.25 25.3333V31.6666C33.25 32.5064 32.9164 33.3119 32.3225 33.9058C31.7286 34.4996 30.9232 34.8333 30.0833 34.8333H23.75" stroke="#E6E6E6" stroke-width="2" stroke-linecap="round" stroke-linejoin="round"/>
</svg>
