<svg width="38" height="38" viewBox="0 0 38 38" fill="none" xmlns="http://www.w3.org/2000/svg">
<path d="M31.6663 15.8333H18.9997C17.2508 15.8333 15.833 17.251 15.833 18.9999V31.6666C15.833 33.4155 17.2508 34.8333 18.9997 34.8333H31.6663C33.4152 34.8333 34.833 33.4155 34.833 31.6666V18.9999C34.833 17.251 33.4152 15.8333 31.6663 15.8333Z" stroke="#E6E6E6" stroke-width="2" stroke-linecap="round" stroke-linejoin="round"/>
<path d="M22.1613 9.62089L16.6196 4.07922C15.9681 3.49175 15.1219 3.16661 14.2446 3.16661C13.3673 3.16661 12.5212 3.49175 11.8696 4.07922L4.07961 11.9959C3.49214 12.6474 3.16699 13.4936 3.16699 14.3709C3.16699 15.2482 3.49214 16.0943 4.07961 16.7459L9.49461 22.1609" stroke="#E6E6E6" stroke-width="2" stroke-linecap="round" stroke-linejoin="round"/>
<path d="M14.25 14.25H14.265" stroke="#E6E6E6" stroke-width="3.16667" stroke-linecap="round" stroke-linejoin="round"/>
<path d="M25.333 25.3333H25.348" stroke="#E6E6E6" stroke-width="3.16667" stroke-linecap="round" stroke-linejoin="round"/>
<path d="M20.583 30.0833H20.598" stroke="#E6E6E6" stroke-width="3.16667" stroke-linecap="round" stroke-linejoin="round"/>
<path d="M30.083 20.5833H30.098" stroke="#E6E6E6" stroke-width="3.16667" stroke-linecap="round" stroke-linejoin="round"/>
</svg>
