<svg width="38" height="38" viewBox="0 0 38 38" fill="none" xmlns="http://www.w3.org/2000/svg">
<circle cx="19" cy="19" r="16" stroke="#4AEDD9" stroke-width="2"/>
<rect x="18.5" y="7" width="1" height="24" fill="#4AEDD9"/>
<path d="M19.333 11.2725C20.2118 11.2725 21.0305 11.4016 21.7881 11.6592C22.5454 11.9116 23.217 12.2699 23.8027 12.7344C24.3936 13.199 24.8763 13.7523 25.25 14.3936C25.6237 15.0299 25.8637 15.7323 25.9697 16.5H22.6367C22.5307 16.1313 22.3814 15.8053 22.1895 15.5225C21.9976 15.2347 21.7621 14.9928 21.4844 14.7959C21.2118 14.594 20.8993 14.4391 20.5459 14.333C20.1975 14.227 19.8108 14.1739 19.3867 14.1738C18.5938 14.1738 17.8969 14.3717 17.2959 14.7656C16.7 15.1595 16.2347 15.732 15.9014 16.4844C15.568 17.2318 15.4014 18.1467 15.4014 19.2275C15.4014 20.308 15.5655 21.227 15.8936 21.9844C16.2218 22.742 16.6871 23.3207 17.2881 23.7197C17.8891 24.1136 18.5989 24.3105 19.417 24.3105C20.1593 24.3105 20.7932 24.1796 21.3184 23.917C21.8486 23.6493 22.2525 23.2728 22.5303 22.7881C22.7989 22.3275 22.9387 21.787 22.9521 21.167H21V18.6973H26.1133V20.6514C26.1133 22.015 25.8258 23.1872 25.25 24.167C24.6743 25.1416 23.8811 25.8936 22.8711 26.4238C21.861 26.9491 20.7044 27.2119 19.4014 27.2119C17.9469 27.2119 16.6693 26.8913 15.5684 26.25C14.4673 25.6035 13.6083 24.6869 12.9922 23.5C12.3811 22.3082 12.0762 20.894 12.0762 19.2578C12.0762 18.0002 12.2575 16.8784 12.6211 15.8936C12.9898 14.9038 13.5054 14.0657 14.167 13.3789C14.8286 12.6921 15.5988 12.1691 16.4775 11.8105C17.3562 11.4521 18.308 11.2725 19.333 11.2725Z" fill="#4AEDD9"/>
</svg>
