<svg width="38" height="38" viewBox="0 0 38 38" fill="none" xmlns="http://www.w3.org/2000/svg">
<path d="M23.75 34.2501V24.3982C23.75 24.0716 23.5832 23.7584 23.2863 23.5274C22.9893 23.2965 22.5866 23.1667 22.1667 23.1667H15.8333C15.4134 23.1667 15.0107 23.2965 14.7137 23.5274C14.4168 23.7584 14.25 24.0716 14.25 24.3982V34.2501" stroke="#E6E6E6" stroke-width="2" stroke-linecap="round" stroke-linejoin="round"/>
<path d="M4 16.4999C3.99988 16.015 4.10556 15.5359 4.30965 15.0961C4.51374 14.6562 4.81133 14.2662 5.18167 13.9532L16.8484 3.95483C17.45 3.44634 18.2123 3.16736 19 3.16736C19.7878 3.16736 20.5501 3.44634 21.1517 3.95483L32.8184 13.9532C33.1888 14.2662 33.4864 14.6562 33.6904 15.0961C33.8945 15.5359 34.0002 16.015 34.0001 16.4999V31.4999C34.0001 32.384 33.6489 33.2318 33.0238 33.8569C32.3987 34.4821 31.5508 34.8333 30.6667 34.8333H7.33334C6.44929 34.8333 5.60144 34.4821 4.97631 33.8569C4.35119 33.2318 4 32.384 4 31.4999V16.4999Z" stroke="#E6E6E6" stroke-width="2" stroke-linecap="round" stroke-linejoin="round"/>
</svg>
