<svg width="800" height="800" viewBox="0 0 800 800" fill="none" xmlns="http://www.w3.org/2000/svg">
<path d="M400 600C436.819 600 466.666 570.152 466.666 533.333C466.666 496.514 436.819 466.667 400 466.667C363.181 466.667 333.333 496.514 333.333 533.333C333.333 570.152 363.181 600 400 600Z" stroke="#4AEDD9" stroke-width="50"/>
<path d="M200 333.333V266.667C200 255.31 200.947 244.174 202.765 233.333M600 333.333V266.667C600 156.21 510.457 66.6667 400 66.6667C340.267 66.6667 286.647 92.8544 250 134.375" stroke="#4AEDD9" stroke-width="50" stroke-linecap="round"/>
<path d="M366.667 733.333H266.667C172.386 733.333 125.246 733.333 95.9563 704.043C66.667 674.753 66.667 627.613 66.667 533.333C66.667 439.053 66.667 391.913 95.9563 362.623C125.246 333.333 172.386 333.333 266.667 333.333H533.334C627.614 333.333 674.754 333.333 704.044 362.623C733.334 391.913 733.334 439.053 733.334 533.333C733.334 627.613 733.334 674.753 704.044 704.043C674.754 733.333 627.614 733.333 533.334 733.333H500" stroke="#4AEDD9" stroke-width="50" stroke-linecap="round"/>
</svg>
