<svg width="38" height="38" viewBox="0 0 38 38" fill="none" xmlns="http://www.w3.org/2000/svg">
<path d="M11 31.3285C11.6006 29.4703 12.6812 27.868 14.0966 26.7368C15.512 25.6055 17.1945 24.9995 18.9181 25C20.6418 25.0005 22.324 25.6076 23.7389 26.7397C25.1538 27.8719 26.2336 29.4748 26.8333 31.3333" stroke="#E6E6E6" stroke-width="2" stroke-linecap="round" stroke-linejoin="round"/>
<path d="M19.0003 23.7499C22.4981 23.7499 25.3337 20.9144 25.3337 17.4166C25.3337 13.9188 22.4981 11.0833 19.0003 11.0833C15.5025 11.0833 12.667 13.9188 12.667 17.4166C12.667 20.9144 15.5025 23.7499 19.0003 23.7499Z" stroke="#E6E6E6" stroke-width="2" stroke-linecap="round" stroke-linejoin="round"/>
<path d="M19 2.58325C27.1047 2.58325 33.834 9.84175 33.834 19.0002C33.8338 28.1586 27.1046 35.4163 19 35.4163C10.8956 35.4161 4.16715 28.1585 4.16699 19.0002C4.16699 9.84187 10.8955 2.58345 19 2.58325Z" stroke="#E6E6E6" stroke-width="2"/>
</svg>
