<svg width="38" height="38" viewBox="0 0 38 38" fill="none" xmlns="http://www.w3.org/2000/svg">
<path d="M3.16699 11.0834L10.1495 4.10092C10.4441 3.80457 10.7944 3.56945 11.1803 3.40912C11.5662 3.24879 11.98 3.16642 12.3978 3.16675H25.6028C26.0207 3.16642 26.4345 3.24879 26.8204 3.40912C27.2062 3.56945 27.5566 3.80457 27.8512 4.10092L34.8337 11.0834" stroke="#E6E6E6" stroke-width="2" stroke-linecap="round" stroke-linejoin="round"/>
<path d="M6.33301 19V31.6667C6.33301 32.5065 6.66664 33.312 7.2605 33.9058C7.85437 34.4997 8.65982 34.8333 9.49967 34.8333H28.4997C29.3395 34.8333 30.145 34.4997 30.7388 33.9058C31.3327 33.312 31.6663 32.5065 31.6663 31.6667V19" stroke="#E6E6E6" stroke-width="2" stroke-linecap="round" stroke-linejoin="round"/>
<path d="M3.16699 11.0833H34.8337" stroke="#E6E6E6" stroke-width="2" stroke-linecap="round" stroke-linejoin="round"/>
<path d="M34.8337 11.0833V15.8333C34.8337 16.6731 34.5 17.4786 33.9062 18.0724C33.3123 18.6663 32.5068 18.9999 31.667 18.9999C30.7419 18.949 29.8584 18.5989 29.1495 18.0024C28.9606 17.8659 28.7334 17.7924 28.5003 17.7924C28.2672 17.7924 28.0401 17.8659 27.8512 18.0024C27.1423 18.5989 26.2587 18.949 25.3337 18.9999C24.4086 18.949 23.5251 18.5989 22.8162 18.0024C22.6272 17.8659 22.4001 17.7924 22.167 17.7924C21.9339 17.7924 21.7067 17.8659 21.5178 18.0024C20.8089 18.5989 19.9254 18.949 19.0003 18.9999C18.0752 18.949 17.1917 18.5989 16.4828 18.0024C16.2939 17.8659 16.0667 17.7924 15.8337 17.7924C15.6006 17.7924 15.3734 17.8659 15.1845 18.0024C14.4756 18.5989 13.5921 18.949 12.667 18.9999C11.7419 18.949 10.8584 18.5989 10.1495 18.0024C9.96057 17.8659 9.73341 17.7924 9.50033 17.7924C9.26724 17.7924 9.04008 17.8659 8.85116 18.0024C8.14225 18.5989 7.25875 18.949 6.33366 18.9999C5.49381 18.9999 4.68835 18.6663 4.09449 18.0724C3.50062 17.4786 3.16699 16.6731 3.16699 15.8333V11.0833" stroke="#E6E6E6" stroke-width="2" stroke-linecap="round" stroke-linejoin="round"/>
<rect x="6.33301" y="31.6667" width="1.58333" height="25.3333" rx="0.791667" transform="rotate(-90 6.33301 31.6667)" fill="#E6E6E6"/>
</svg>
